<?xml version="1.0" encoding="UTF-8"?>
<!DOCTYPE svg PUBLIC "-//W3C//DTD SVG 1.1//EN" "http://www.w3.org/Graphics/SVG/1.1/DTD/svg11.dtd">
<!-- Creator: CorelDRAW 2021.5 -->
<svg xmlns="http://www.w3.org/2000/svg" xml:space="preserve" width="100mm" height="9.617mm" version="1.1" style="shape-rendering:geometricPrecision; text-rendering:geometricPrecision; image-rendering:optimizeQuality; fill-rule:evenodd; clip-rule:evenodd"
viewBox="0 0 10000 961.7"
 xmlns:xlink="http://www.w3.org/1999/xlink"
 xmlns:xodm="http://www.corel.com/coreldraw/odm/2003">
 <defs>
  <style type="text/css">
   <![CDATA[
    .fil1 {fill:#D9DADA}
    .fil0 {fill:#E5FF00}
   ]]>
  </style>
 </defs>
 <g id="Layer_x0020_1">
  <metadata id="CorelCorpID_0Corel-Layer"/>
  <g id="_2228138854432">
   <g>
    <path class="fil0" d="M3417.27 256.28l0 470.37c0,33.22 10.35,70.78 21.33,93.65l9.56 19.18c7.76,14.29 25.58,38.06 37.32,48.89 41.07,37.89 106.63,68.25 162.9,68.25l618.9 0c31.67,0 62.61,-23.54 77.04,-52.26 4.4,-8.74 9.14,-22.33 9.14,-35.28l0 -384.15c0,-37.94 -28.39,-74.24 -63.12,-85.78 -12.79,-4.25 -28.75,-5.68 -45.26,-5.68l-517.05 0c-3.01,0 -3.92,0.91 -3.92,3.92l0 185.54 441.33 0 0 185.54 -510.53 0c-30.56,0 -49.62,-21.22 -49.62,-52.27l0 -454.7c0,-18.86 7.15,-35.27 18.5,-42.89 15.59,-10.46 31.57,-10.68 52.01,-10.68l669.82 0 0 -188.15 -660.68 0c-56.52,0 -105.14,4.64 -153.84,34.21 -7.27,4.41 -12.1,7.7 -18.71,12.64l-17.77 14.88c-21,21.25 -41.3,44.43 -52.73,72.66 -2.98,7.38 -6.28,13.61 -9.13,22.23 -8.37,25.32 -15.49,51.18 -15.49,79.88z"/>
    <path class="fil0" d="M6921.78 302.01c0,39.77 6.78,81.95 21.43,117.05 9.49,22.74 24.35,46.16 39.53,64.98l16.35 18.91 38.37 30.85c7.83,5.2 13.44,8.76 21.82,13.44 40.31,22.57 91.27,35.69 139.31,35.69 93.13,0 186.28,0 279.42,0 38.38,0 105.94,-3.73 134.35,5.36 34.93,11.17 57.59,45.31 57.59,82.18l0 11.76c0,49.91 -33.55,86.24 -83.57,86.24l-656.77 0 0 188.15 664.61 0c54.22,0 126.31,-29.13 168.02,-63.12 45.31,-36.93 75.18,-86 88.42,-144.11 10.11,-44.41 10.21,-103.02 -0.25,-147.13 -8.43,-35.53 -22.56,-65.2 -42.82,-94.36 -8.21,-11.82 -17.5,-20.08 -23.28,-27.65 -3.82,-5.01 -5.4,-4.81 -9.6,-8.7 -6.7,-6.21 -10.63,-10.08 -18.21,-15.74 -37.19,-27.77 -70.4,-43.21 -116.57,-54.52 -8.69,-2.13 -19.76,-3.86 -28.98,-4.97 -45.49,-5.51 -120.85,-2.85 -169.5,-2.85 -45.71,0 -91.4,0 -137.1,0 -31.42,0 -111.67,3.26 -134.25,-2.85 -36,-9.73 -58.99,-41.88 -58.99,-79.47 0,-22.69 -0.78,-34.89 8.73,-56.58 17.97,-40.97 57.49,-46.64 97.03,-46.64l557.53 0 0 -188.15 -557.53 0c-51.81,0 -107.24,10.61 -147.59,31.32 -72.26,37.09 -124.91,103.2 -141.11,184.13 -3.68,18.39 -6.39,44.85 -6.39,66.78z"/>
    <path class="fil0" d="M5490.72 94.25l0 862.37 188.03 0 0 -625.87 59.08 61.08c3.49,3.5 6.51,6.22 9.81,9.79l9.78 11.12c6.81,6.76 12.96,12.67 19.61,19.58l78.31 82.34c3.59,3.58 6.21,6.23 9.81,9.79 4.21,4.16 5.76,7.11 9.75,11.14 6.99,7.07 13.2,13.21 20.28,20.22l19.57 20.91c3.59,3.59 6.2,6.23 9.81,9.8 4.26,4.22 5.86,7.08 9.75,11.13 6.86,7.13 13.24,13.26 20.27,20.23l19.58 20.9c3.59,3.59 6.2,6.24 9.8,9.8l9.77 11.13c6.32,6.84 12.92,12.93 19.61,19.58l256.13 267.64c23.54,18.36 36.83,22.63 67.19,22.76l1.47 0c12.56,0 28.19,-5.48 37.02,-9.99 11.47,-5.86 18.15,-11.78 26.65,-20.37 16.64,-16.79 25.11,-43.6 25.11,-68.94l0 -846.69c0,-3.01 -0.9,-3.92 -3.91,-3.92l-181.49 0c-6.55,0 -3.92,23.19 -3.92,35.28l0 591.89 -59.1 -61.06c-3.99,-3.97 -5.26,-6.61 -9.1,-10.5l-69.23 -71.84c-3.58,-3.58 -6.2,-6.22 -9.79,-9.8 -4.42,-4.4 -5.86,-6.27 -9.85,-11.05 -5.48,-6.55 -13.29,-13.41 -19.53,-19.65l-99.22 -103.23c-13.07,-14.86 -22.58,-22.82 -34.02,-36.52 -1.76,-2.11 -3.21,-3.35 -5.16,-5.29 -22.34,-22.15 -67.37,-68.49 -88.15,-92.11 -3.11,-3.53 -6.37,-6.39 -9.78,-9.8l-19.64 -20.85c-8.93,-10.69 -19.75,-18.45 -29.45,-30.63 -2.97,-3.72 -6.8,-7.06 -10.32,-10.59l-58.75 -61.41c-6.69,-6.68 -14.14,-13.33 -20.23,-20.26l-19.6 -20.9c-3.48,-3.48 -6.52,-6.21 -9.81,-9.78 -9.71,-10.54 -18.69,-20.21 -34.79,-26.6 -10.26,-4.08 -20.27,-6.33 -29.9,-7.06l-14.06 0c-50.6,3.87 -87.39,49.15 -87.39,86.23z"/>
    <path class="fil0" d="M9059.21 271.95l0 684.67 188.02 0 0 -683.36c0,-55.5 22.38,-65.33 73.12,-65.33l335.57 0c25.09,0 45.16,1.2 65.02,6.79 55.34,15.58 86.44,76.75 86.44,130.41 0,27.11 2.12,78.53 -3.39,102.43 -2.61,11.28 -4.76,16.13 -8.53,25.44 -19.6,48.41 -79.3,72.04 -130.4,72.04l-373.43 0 0 188.15 381.27 0c86.77,0 154.17,-27.43 217.31,-76.52 4.58,-3.56 6.11,-5.83 10.43,-9.17 4.64,-3.58 6.23,-5.4 10.22,-9.36 12.99,-12.87 33.41,-39.55 42.36,-55.61 4.91,-8.83 9.07,-16.77 13.48,-25.72 21,-42.6 27.15,-87.44 28.7,-133.34l0 -94.03c0,-56.17 -20.41,-115.79 -44.94,-157.54 -9.13,-15.54 -21.44,-34.53 -33.11,-47.89 -13.39,-15.32 -25.7,-27.96 -42.07,-40.21 -24.89,-18.63 -48.08,-32.79 -79.15,-43.62 -51.33,-17.9 -86.16,-20.4 -142.82,-20.4l-330.35 0c-45.48,0 -76.19,5.8 -110.5,17.46 -24.89,8.46 -60.96,30.02 -80.48,48.82 -21.07,20.3 -40.78,47.62 -53.22,76.1 -13.44,30.78 -19.55,65.58 -19.55,109.79z"/>
    <path class="fil0" d="M7954.59 23.7l0 449.47c0,38.03 2.23,76.26 7.64,108.65 6.28,37.55 12.19,57.07 24.51,91.75 20.9,58.8 59.9,114.91 104.59,157.97l31.32 26.15c33.01,24.66 53.6,36.84 91.32,54.95 26.13,12.57 58.34,22.48 86.63,29.61 27.67,6.97 73.14,14.37 103.15,14.37l400.85 0c43.35,0 87.48,-41.5 87.48,-91.46l0 -841.46c0,-3.01 -0.91,-3.92 -3.92,-3.92l-184.1 0 0 748.69 -283.34 0c-58.94,0 -105.05,-17.5 -151.47,-40.5l-20.34 -12.31c-6.52,-4.73 -12.37,-9.11 -18.44,-14.21 -47.6,-40.06 -81.85,-110.11 -85.21,-172.13 -3.53,-65.2 -1.35,-185.16 -1.35,-256.06 0,-77.99 -1.02,-162.68 0.03,-240.44 0.08,-6.04 1.74,-13.04 -3.94,-13.04l-181.49 0c-3.01,0 -3.92,0.91 -3.92,3.92z"/>
    <path class="fil0" d="M4499.7 117.78l0 590.58c0,66.59 16.4,120.49 57.75,166.94 3.02,3.39 3.71,5.03 7.19,8.5 14.6,14.53 32.42,29.3 50.82,39.3 31.88,17.34 75.15,33.52 116.65,33.52l620.21 0 0 -188.15 -613.68 0c-29.69,0 -49.61,-18.75 -49.61,-48.35l0 -512.19 663.29 0 0 -188.15 -741.64 0c-44.86,0 -82.67,11.95 -101.83,54.89 -5.19,11.63 -9.15,26.36 -9.15,43.11z"/>
    <path class="fil0" d="M6597.96 956.62l188.02 0 0 -932.92c0,-3.01 -0.9,-3.92 -3.91,-3.92l-184.11 0 0 936.84z"/>
    <path class="fil0" d="M4732.11 397.39l0 185.54 545.79 0 0 -189.46 -541.87 0c-3.01,0 -3.92,0.91 -3.92,3.92z"/>
   </g>
   <g>
    <path class="fil0" d="M1520.26 969.69c-5.53,-2.4 -15.54,-1.76 -22.32,-2.56 -77.25,-9.09 -132.31,-29.52 -198.44,-68.41 -14.55,-8.56 -30.67,-19.07 -43.37,-29.44 -2.85,-2.32 -11.68,-10.03 -14.26,-10.79l-839.33 0c-34.78,0 -43.34,0.28 -77.32,-6.47 -14.11,-2.8 -35.41,-9.11 -48.47,-14.95 -26.89,-12.01 -42.03,-20.61 -65.71,-39.21l-27.14 -24.53c-2.38,-2.35 -3.02,-3.53 -5.09,-5.88l-9.93 -11.21c-6.28,-8.04 -12.1,-15.1 -17.42,-24.08 -16.52,-27.89 -31.03,-56.26 -37.77,-89.09 -6.82,-33.18 -7.41,-52.43 -5.52,-86.85l3.96 -27.37c2.4,-11.94 5.14,-22.98 8.45,-33.83 1.62,-5.34 3.64,-9.9 5.57,-14.78 1,-2.51 2.1,-4.87 3.03,-7.15 9.25,-22.59 27.76,-54.52 44.54,-72.14 2.06,-2.17 2.69,-3.43 4.68,-5.5l10.17 -10.98c11,-10.53 27.72,-24.67 40.46,-33.14 38.02,-25.26 75.06,-39.11 122.47,-45.09 24.45,-3.08 54.65,-2.2 82.36,-2.2 224.17,0 448.38,0.38 672.55,-0.01l124.5 0 88.47 0 227.06 0c39.83,0.07 88.83,14.86 118.8,41.71 2.46,2.21 3.9,3.08 6.27,5.48 3.21,3.27 7.39,5.83 11.71,11 15.79,18.89 20.01,23.06 32.6,48.05 16.86,33.46 22.35,79.26 13.68,116.02 -4.04,17.14 -4.56,18.8 -11.04,35.17 -6.95,17.57 -27.26,48.51 -42.28,61.08 -20.1,16.8 -16.18,14.18 -40.64,29.05 -17.42,10.6 -55.16,21.31 -76.59,21.28 -1.59,-0.01 -3.99,-0.14 -5.47,0.79l227.06 0 13 -17.53c11.74,-17.65 24.93,-41.65 32.12,-61.85 5.52,-15.51 11.01,-31.31 14.18,-48.47 2.33,-12.64 4.97,-28.91 4.89,-42.1 -0.04,-5.65 0.85,-8.69 0.82,-14.88 -0.02,-5.27 -0.86,-8.07 -0.8,-14.08 0.17,-17.74 -6.44,-49.92 -11.13,-67.18 -6.83,-25.11 -14.38,-42.38 -27.99,-65.99 -5.26,-9.12 -12.02,-20.13 -18.38,-28.6 -2.25,-2.99 -4.95,-6.17 -6.71,-9.06l-14.36 -16.06c-9.34,-11.03 -15.95,-15.74 -25.55,-24.57 -6.54,-6.03 -14.82,-11.71 -22.64,-17.3 -32.9,-23.5 -71.03,-39.92 -111.7,-47.97 -6.81,-1.35 -31.81,-3.76 -35.14,-5.19l-240.81 0.01 -158.94 0c-10.38,-0.02 -805.09,-1 -813.94,0.32l-24.84 2.56c-8.59,1.25 -15.31,2.3 -23.58,3.83 -15.34,2.82 -28.84,6.9 -43.07,10.97 -14.47,4.13 -26.06,9.43 -39.03,14.99 -6.55,2.8 -12.08,5.18 -18.32,8.3 -14.19,7.09 -37.9,22.46 -50.83,31.38l-22.69 17.25c-11.12,8.73 -25.48,23.65 -35.37,33.54 -13.48,13.47 -38.05,45.64 -47.42,61.42 -3.53,5.94 -6.27,10.8 -9.68,16.95 -25.97,46.76 -47.23,114.76 -47.23,169.68l0 2.71c0.08,56.4 2.43,86.08 20.46,140.5 2.23,6.74 5.07,13.4 7.62,19.79 6.4,16.02 8.85,21.3 16.8,37.23l9.68 16.94c3.53,5.92 6.79,11.27 10.57,16.84 1.92,2.81 3.53,4.93 5.49,7.83 10.57,15.64 30.51,38.25 43.89,51.64 4.63,4.62 8.97,8.38 13.68,12.93l30.44 24.38c27.15,18.69 37.94,26.73 68.42,40.43 49.8,22.37 98.08,34.44 155.03,34.44 380.93,0 761.85,0 1142.78,0z"/>
    <path class="fil1" d="M1858.05 119.22l839.33 0c31.73,0 46.24,-0.2 77.32,6.46 20.71,4.44 44.2,11.94 63.09,21.46 26.62,13.42 41.32,24.59 62.14,42.01l31.11 32.32c27.23,34.88 44.85,69.62 55.09,113.26 5.45,23.22 7.32,48.06 6.45,77.4 -0.26,8.68 -3.07,28.18 -4.79,36.72 -5.42,26.97 -7.75,33.04 -17.06,55.77 -10.33,25.23 -30.06,57.73 -49.21,77.64 -1.96,2.03 -3.62,3.41 -5.51,5.45 -1.97,2.14 -2.43,3.39 -4.66,5.52 -2.13,2.04 -3.38,2.53 -5.52,4.66l-34.94 28.48c-17.06,11.33 -34.61,20.97 -55.17,28.62 -20.93,7.8 -41.25,13.34 -67.38,16.39 -25.08,2.94 -54.15,2.29 -82.28,2.29 -224.18,0 -448.39,0.38 -672.56,-0.01l-124.49 0 -88.47 0 -227.06 0c-6.15,0.01 -16.07,-0.63 -21.37,-1.32 -19.04,-2.51 -37.83,-6.2 -54.57,-14.33 -14.88,-7.23 -30.08,-14.6 -42.87,-26.05l-12.55 -10.94c-32.91,-32.57 -56.04,-81.36 -55.77,-128.24 0.08,-15.12 1.14,-28.92 4.07,-41.37 1.45,-6.14 2.73,-12.03 4.64,-18.07 5.48,-17.27 12.82,-32.29 22.61,-47.08l15.06 -19.39c2.19,-2.46 3.01,-3.8 5.5,-6.26 24.77,-24.56 53.67,-42 87.96,-50.62 6.9,-1.74 27.02,-5.16 34.78,-5.15l4.35 -0.35c0.17,-0.05 0.44,-0.18 0.57,-0.22 0.13,-0.04 0.38,-0.13 0.55,-0.24l-227.06 0c-1.06,1.59 -1.94,2.35 -3.14,3.91 -14.4,18.83 -28.47,42.54 -37.46,64.34 -12.07,29.23 -23.79,69.04 -23.59,101.71 0.04,5.65 -0.86,8.69 -0.83,14.89 0.03,5.27 0.87,8.07 0.81,14.08 -0.2,21.47 8.1,58.14 14.79,79.18 0.69,2.17 1,3.94 1.76,6.06 7.11,19.85 12.31,30.14 22.57,47.92 2,3.49 3.65,6.33 5.76,9.9l15.85 23.29c1.52,2 2.36,2.64 3.48,4.48l14.36 16.05c6.25,7.4 13.35,13.68 20.4,20.3 6.9,6.48 19.62,15.78 27.78,21.58 24.9,17.69 49.84,29.9 79.96,39.84 10.02,3.3 20.99,6 31.75,8.12 6.86,1.36 31.75,3.75 35.13,5.19l240.82 0.01 158.94 0 786.87 -0.01c21.1,0 30.46,0.34 52.02,-2.79 8.39,-1.21 15.46,-2.31 23.47,-3.93 21.06,-4.24 52.59,-12.27 72.22,-21.73 3.41,-1.65 6.43,-2.61 9.93,-4.17l52.82 -28.61c11.55,-7.41 28.65,-19.42 39.07,-28.28l35.26 -33.64c8.2,-8.14 30.12,-35.22 36.53,-44.9 20.42,-30.82 33.08,-53.84 45.58,-89.9 9.37,-27.04 17.92,-54.78 20.73,-88.12 0.71,-8.47 1.21,-16.82 1.49,-25.08l0 -31.11c-1.62,-45.12 -10.48,-87.91 -28.07,-131.94 -1.35,-3.38 -2.42,-6.03 -3.8,-9.51 -1.42,-3.57 -2.79,-6.22 -4.03,-9.28 -3.81,-9.36 -8.92,-18.1 -13.68,-27.04 -1.62,-3.04 -3.2,-5.36 -4.98,-8.34 -3.52,-5.92 -6.78,-11.26 -10.57,-16.83l-23.23 -30.8 -26.14 -28.67c-9.85,-9.86 -24.79,-22.85 -36.05,-31.3 -2.9,-2.17 -5.06,-3.95 -8.07,-6.02 -12.14,-8.36 -27.4,-19.86 -40.76,-26.58 -45.33,-22.81 -76.83,-36.91 -132.04,-44.92 -14.74,-2.14 -30.73,-3.03 -47,-3.36l-56.85 0 -1.61 0 -1087.99 0 44.21 5.59c13.87,2.3 26.93,4.99 40.38,8.19 26.31,6.26 49.61,14.2 73.03,24.04 29.72,12.48 81.27,41.78 106.94,62.96 2.74,2.25 11.33,9.69 13.85,10.42z"/>
    <path class="fil0" d="M1242.65 119.22l295.96 0c49.26,0.08 73.43,4.45 116.67,15.66 28.81,7.47 67.01,26.5 92.05,41.84 4.15,2.54 20.37,13.31 22.25,16.11 6.53,1.54 42.49,35.88 49.03,43.38 3.74,4.29 7.86,7.87 12.25,13.57 1.95,2.53 4.06,4.98 6.01,7.32l22.07 30.4c3.02,4.82 7.53,11.14 9.63,16.54 6.85,12.36 13.83,24.22 19.56,38.04 13.99,33.7 23.6,66.14 27.72,103.84 2.18,19.94 2.79,35.33 1.7,55.46l-1.58 28.17c-1.82,20.97 -6.71,42.2 -12.17,61.45 -1.18,4.15 -2.33,7.27 -3.3,10.79 -7,25.33 -19.28,48.86 -31.49,71.87l124.49 0 14.59 -40.22c9.67,-29.6 15.26,-60.47 19.54,-91.66 1.53,-11.18 3.14,-42.15 2,-52.26 -0.93,-8.34 0.71,-18.84 -0.23,-27.18 -3.27,-29.16 -2.43,-41.15 -9.61,-73.4 -3.41,-15.32 -7.02,-29.97 -11.5,-44.09 -2.12,-6.67 -4.65,-13.91 -6.85,-20.56 -1.41,-4.24 -6.07,-17.42 -8.26,-20.25 -5.98,-18.21 -20.39,-40.83 -29.57,-58.6 -9.22,-17.86 -29.73,-43.41 -34.82,-52.61l-8.31 -9.97c-1.88,-1.94 -2.12,-2.81 -3.89,-4.72l-8.62 -9.39c-8.17,-9.21 -16.6,-19.3 -26.24,-27.79l-23.68 -21.74c-2.52,-0.73 -11.11,-8.17 -13.85,-10.42 -25.67,-21.18 -77.22,-50.48 -106.94,-62.96 -23.42,-9.84 -46.72,-17.78 -73.03,-24.04 -13.45,-3.2 -26.51,-5.89 -40.38,-8.19l-44.21 -5.59 -1116.03 0 -0.44 0 -31.38 0c-0.59,0.05 -1.14,0.11 -1.66,0.18 -16.05,2.15 -33.33,15.94 -39.86,28.26 -5.15,9.71 -6.52,12.71 -6.52,27.16 0,13.26 1.41,18.65 6.5,27.17 8.02,13.4 21.95,24.68 40.12,28.01 8.11,1.48 262.8,0.42 270.48,0.42 180.59,0 361.21,0.31 541.8,0z"/>
    <path class="fil1" d="M1106.73 673.67c5.92,18.08 20.43,40.94 29.57,58.6 4.02,7.76 19.72,31.31 25.87,39.9 2.95,4.12 6.92,9.02 8.95,12.7l8.23 10.07c11.82,14.69 25.59,28.52 38.82,41.83 2.09,2.09 3.04,2.48 5.1,4.3 1.67,1.47 2.64,2.81 4.31,4.29 2.07,1.82 3.01,2.2 5.1,4.3 1.61,1.63 2.63,2.86 4.37,4.24 2.4,1.9 3.04,1.94 4.82,4.59 2.58,0.76 11.41,8.47 14.26,10.79 12.7,10.37 28.82,20.88 43.37,29.44 66.13,38.89 121.19,59.32 198.44,68.41 6.78,0.8 16.79,0.16 22.32,2.56l1116.05 0 31.7 0c11.49,-1.12 20.77,-5.27 34.27,-18.6 19.31,-19.08 18.82,-55.42 0.39,-73.62 -22.97,-22.68 -34.92,-18.98 -66.36,-18.98l-779.04 -0.01 -295.96 0c-52.31,0.09 -92.21,-7.38 -131.44,-20.46 -23.12,-7.7 -31.46,-12.84 -52.55,-23.39 -8.79,-4.39 -42.17,-23.17 -46.98,-29.76 -3.78,-0.87 -25.4,-19.78 -28.93,-23.52 -7.22,-7.65 -17.25,-15.89 -26.22,-26.24 -9.78,-11.3 -38.12,-46.48 -43.84,-61.44 -3.48,-6.24 -6.42,-12.14 -10.17,-18.46 -2.26,-3.8 -2.74,-5.4 -4.62,-9.48 -4.63,-9.98 -9.69,-20.2 -13.16,-30.69 -8.48,-25.62 -16.29,-55.41 -19.33,-83.26 -0.54,-4.92 -0.5,-8.76 -1.04,-13.84 -1.93,-17.94 -1.56,-25.1 -0.67,-41.62 0.28,-5.09 -0.29,-9.45 0.46,-14.42l2.71 -27.04c2.32,-16.75 10.94,-53.17 17.52,-70.19 11.63,-30.1 12.17,-30.9 27.86,-60.64l-124.5 0 -14.59 40.23c-4.52,13.87 -8.25,29.71 -11.55,44.05 -3.64,15.79 -5.63,30.45 -7.98,47.62 -1.41,10.32 -3.32,43.49 -2.1,52.35 1.12,8.19 -0.61,18.78 0.32,27.08 3.28,29.17 2.44,41.15 9.61,73.4 2.71,12.17 18.8,74.74 26.61,84.91z"/>
    <path class="fil1" d="M1993.18 304.04c21.77,0 208.56,-0.81 216.09,0.33 6.56,0.99 16.73,1.12 23.49,0.12 16.47,-2.44 21.98,-0.81 36.69,-11.85 33.71,-25.32 25.65,-76.78 -7.9,-93.82 -14.55,-7.38 -21.87,-5.99 -42.56,-5.99l-290.2 0c5.09,9.2 25.6,34.75 34.82,52.61 9.18,17.77 23.59,40.39 29.57,58.6z"/>
    <path class="fil0" d="M1171.12 784.87c-2.03,-3.68 -6,-8.58 -8.95,-12.7 -6.15,-8.59 -21.85,-32.14 -25.87,-39.9 -9.14,-17.66 -23.65,-40.52 -29.57,-58.6 -21.77,0 -208.55,0.81 -216.08,-0.33 -11.27,-1.71 -34.66,0.08 -44.47,3.16 -27.38,8.59 -48.24,43.44 -31.31,78.11 3.82,7.81 9.3,14.05 15.83,19.41 15.03,12.35 29.33,10.85 50.22,10.85l290.2 0z"/>
    <path class="fil1" d="M1171.4 192.84l158.94 0 0.84 -0.73c12.72,-10.66 38.14,-24.87 52.93,-33.21l12.25 -5.76c38.8,-19.43 82.04,-27.89 125.68,-32.48l16.57 -1.44 -295.96 0 -28.38 25.65c-3.19,3.19 -5.8,5.83 -9.01,9l-33.86 38.97z"/>
    <path class="fil0" d="M1561.31 858.48l295.96 0 45.96 -44.08c1.71,-2.04 1.93,-2.69 3.94,-4.68l21.35 -24.84 -158.94 0c-10.03,8.68 -46.76,31.04 -59.73,36.57 -10.99,4.69 -15.78,8.2 -31,13.64 -36.84,13.17 -62.63,17.92 -100.97,21.95 -4.69,0.5 -14.83,0.34 -16.57,1.44z"/>
    <path class="fil0" d="M1330.34 784.87l198.42 0c-3.38,-1.44 -28.27,-3.83 -35.13,-5.19 -10.76,-2.12 -21.73,-4.82 -31.75,-8.12 -30.12,-9.94 -55.06,-22.15 -79.96,-39.84 -8.16,-5.8 -20.88,-15.1 -27.78,-21.58 -7.05,-6.62 -14.15,-12.9 -20.4,-20.3l-14.36 -16.05 -88.03 -0.12c5.72,14.96 34.06,50.14 43.84,61.44 8.97,10.35 19,18.59 26.22,26.24 3.53,3.74 25.15,22.65 28.93,23.52z"/>
    <path class="fil1" d="M1780.54 303.92l88.03 0.12c-2.1,-5.4 -6.61,-11.72 -9.63,-16.54l-22.07 -30.4c-1.95,-2.34 -4.06,-4.79 -6.01,-7.32 -4.39,-5.7 -8.51,-9.28 -12.25,-13.57 -6.54,-7.5 -42.5,-41.84 -49.03,-43.38l-198.43 0c3.33,1.43 28.33,3.84 35.14,5.19 40.67,8.05 78.8,24.47 111.7,47.97 7.82,5.59 16.1,11.27 22.64,17.3 9.6,8.83 16.21,13.54 25.55,24.57l14.36 16.06z"/>
   </g>
  </g>
 </g>
</svg>
